<svg width="266" height="32" viewBox="0 0 266 32" fill="none" xmlns="http://www.w3.org/2000/svg">
<path d="M9.12002 19.76H6.56003V30.36H2.46167e-05V2.64H9.08003C12.8667 2.64 15.7067 3.33333 17.6 4.72C19.52 6.10667 20.48 8.22667 20.48 11.08C20.48 12.8667 20.0534 14.36 19.2 15.56C18.3467 16.7333 17 17.7333 15.16 18.56L22.2 30.36H14.8L9.12002 19.76ZM6.56003 15.24H9.32002C10.7867 15.24 11.88 14.9067 12.6 14.24C13.3467 13.5733 13.72 12.52 13.72 11.08C13.72 9.74667 13.32 8.77333 12.52 8.16C11.7467 7.54667 10.5467 7.24 8.92003 7.24H6.56003V15.24ZM41.0569 24.2C41.0569 25 41.1636 25.5867 41.3769 25.96C41.6169 26.3333 41.9902 26.6133 42.4969 26.8L41.1769 30.92C39.8702 30.8133 38.8036 30.5333 37.9769 30.08C37.1502 29.6 36.5102 28.8533 36.0569 27.84C34.6702 29.9733 32.5369 31.04 29.6569 31.04C27.5502 31.04 25.8702 30.4267 24.6169 29.2C23.3636 27.9733 22.7369 26.3733 22.7369 24.4C22.7369 22.08 23.5902 20.3067 25.2969 19.08C27.0036 17.8533 29.4702 17.24 32.6969 17.24H34.8569V16.32C34.8569 15.0667 34.5902 14.2133 34.0569 13.76C33.5236 13.28 32.5902 13.04 31.2569 13.04C30.5636 13.04 29.7236 13.1467 28.7369 13.36C27.7502 13.5467 26.7369 13.8133 25.6969 14.16L24.2569 10C25.5902 9.49333 26.9502 9.10667 28.3369 8.84C29.7502 8.57333 31.0569 8.44 32.2569 8.44C35.2969 8.44 37.5236 9.06667 38.9369 10.32C40.3502 11.5733 41.0569 13.4533 41.0569 15.96V24.2ZM31.4969 26.52C32.9369 26.52 34.0569 25.84 34.8569 24.48V20.72H33.2969C31.8569 20.72 30.7769 20.9733 30.0569 21.48C29.3636 21.9867 29.0169 22.7733 29.0169 23.84C29.0169 24.6933 29.2302 25.36 29.6569 25.84C30.1102 26.2933 30.7236 26.52 31.4969 26.52ZM55.811 4.68C54.9043 4.68 54.251 4.89333 53.851 5.32C53.451 5.74667 53.251 6.46667 53.251 7.48V9.12H58.251L57.571 13.52H53.251V30.36H46.931V13.52H43.731V9.12H46.931V7.24C46.931 5.10667 47.6243 3.37333 49.011 2.04C50.4243 0.679999 52.4376 -1.90735e-06 55.051 -1.90735e-06C57.1576 -1.90735e-06 59.091 0.453332 60.851 1.36L59.131 5.48C58.0643 4.94667 56.9576 4.68 55.811 4.68ZM76.2522 24.2C76.2522 25 76.3589 25.5867 76.5722 25.96C76.8122 26.3333 77.1855 26.6133 77.6922 26.8L76.3722 30.92C75.0655 30.8133 73.9989 30.5333 73.1722 30.08C72.3455 29.6 71.7055 28.8533 71.2522 27.84C69.8655 29.9733 67.7322 31.04 64.8522 31.04C62.7455 31.04 61.0655 30.4267 59.8122 29.2C58.5589 27.9733 57.9322 26.3733 57.9322 24.4C57.9322 22.08 58.7855 20.3067 60.4922 19.08C62.1989 17.8533 64.6655 17.24 67.8922 17.24H70.0522V16.32C70.0522 15.0667 69.7855 14.2133 69.2522 13.76C68.7189 13.28 67.7855 13.04 66.4522 13.04C65.7589 13.04 64.9189 13.1467 63.9322 13.36C62.9455 13.5467 61.9322 13.8133 60.8922 14.16L59.4522 10C60.7855 9.49333 62.1455 9.10667 63.5322 8.84C64.9455 8.57333 66.2522 8.44 67.4522 8.44C70.4922 8.44 72.7189 9.06667 74.1322 10.32C75.5455 11.5733 76.2522 13.4533 76.2522 15.96V24.2ZM66.6922 26.52C68.1322 26.52 69.2522 25.84 70.0522 24.48V20.72H68.4922C67.0522 20.72 65.9722 20.9733 65.2522 21.48C64.5589 21.9867 64.2122 22.7733 64.2122 23.84C64.2122 24.6933 64.4255 25.36 64.8522 25.84C65.3055 26.2933 65.9189 26.52 66.6922 26.52ZM99.8063 19.32C99.8063 20.2 99.7663 20.96 99.6863 21.6H86.5263C86.7396 23.3867 87.2463 24.64 88.0463 25.36C88.8463 26.08 89.9529 26.44 91.3663 26.44C92.2196 26.44 93.0463 26.2933 93.8463 26C94.6463 25.68 95.5129 25.2 96.4463 24.56L99.0463 28.08C96.5663 30.0533 93.8063 31.04 90.7663 31.04C87.3263 31.04 84.6863 30.0267 82.8463 28C81.0063 25.9733 80.0863 23.2533 80.0863 19.84C80.0863 17.68 80.4729 15.7467 81.2463 14.04C82.0196 12.3067 83.1529 10.9467 84.6463 9.96C86.1396 8.94667 87.9263 8.44 90.0063 8.44C93.0729 8.44 95.4729 9.4 97.2063 11.32C98.9396 13.24 99.8063 15.9067 99.8063 19.32ZM93.6063 17.52C93.5529 14.2667 92.4063 12.64 90.1663 12.64C89.0729 12.64 88.2196 13.04 87.6063 13.84C87.0196 14.64 86.6596 15.96 86.5263 17.8H93.6063V17.52ZM108.997 31.04C107.157 31.04 105.717 30.52 104.677 29.48C103.663 28.4133 103.157 26.9067 103.157 24.96V0.679999L109.477 -1.90735e-06V24.72C109.477 25.6 109.837 26.04 110.557 26.04C110.93 26.04 111.277 25.9733 111.597 25.84L112.837 30.32C111.69 30.8 110.41 31.04 108.997 31.04ZM152.364 30.36H145.924L145.444 19.52C145.31 16.9333 145.244 14.6267 145.244 12.6C145.244 11.0533 145.284 9.58667 145.364 8.2L141.084 27.44H134.884L130.324 8.2C130.484 10.52 130.564 12.7067 130.564 14.76C130.564 16.3067 130.524 17.92 130.444 19.6L129.964 30.36H123.564L125.644 2.64H133.924L138.084 21.44L141.964 2.64H150.284L152.364 30.36ZM165.369 8.44C168.622 8.44 171.169 9.44 173.009 11.44C174.849 13.4133 175.769 16.1867 175.769 19.76C175.769 22.0267 175.342 24.0133 174.489 25.72C173.662 27.4 172.462 28.7067 170.889 29.64C169.342 30.5733 167.502 31.04 165.369 31.04C162.142 31.04 159.596 30.0533 157.729 28.08C155.889 26.08 154.969 23.2933 154.969 19.72C154.969 17.4533 155.382 15.48 156.209 13.8C157.062 12.0933 158.262 10.7733 159.809 9.84C161.382 8.90667 163.236 8.44 165.369 8.44ZM165.369 13.08C164.089 13.08 163.129 13.6267 162.489 14.72C161.849 15.7867 161.529 17.4533 161.529 19.72C161.529 22.04 161.836 23.7333 162.449 24.8C163.089 25.8667 164.062 26.4 165.369 26.4C166.649 26.4 167.609 25.8667 168.249 24.8C168.889 23.7067 169.209 22.0267 169.209 19.76C169.209 17.44 168.889 15.7467 168.249 14.68C167.636 13.6133 166.676 13.08 165.369 13.08ZM191.048 8.52C191.822 8.52 192.528 8.61333 193.168 8.8L192.168 14.92C191.368 14.7333 190.728 14.64 190.248 14.64C188.995 14.64 188.035 15.08 187.368 15.96C186.728 16.8133 186.222 18.1067 185.848 19.84V30.36H179.528V9.12H185.048L185.568 13.24C186.048 11.7733 186.768 10.6267 187.728 9.8C188.715 8.94667 189.822 8.52 191.048 8.52ZM211.057 24.2C211.057 25 211.164 25.5867 211.377 25.96C211.617 26.3333 211.99 26.6133 212.497 26.8L211.177 30.92C209.87 30.8133 208.804 30.5333 207.977 30.08C207.15 29.6 206.51 28.8533 206.057 27.84C204.67 29.9733 202.537 31.04 199.657 31.04C197.55 31.04 195.87 30.4267 194.617 29.2C193.364 27.9733 192.737 26.3733 192.737 24.4C192.737 22.08 193.59 20.3067 195.297 19.08C197.004 17.8533 199.47 17.24 202.697 17.24H204.857V16.32C204.857 15.0667 204.59 14.2133 204.057 13.76C203.524 13.28 202.59 13.04 201.257 13.04C200.564 13.04 199.724 13.1467 198.737 13.36C197.75 13.5467 196.737 13.8133 195.697 14.16L194.257 10C195.59 9.49333 196.95 9.10667 198.337 8.84C199.75 8.57333 201.057 8.44 202.257 8.44C205.297 8.44 207.524 9.06667 208.937 10.32C210.35 11.5733 211.057 13.4533 211.057 15.96V24.2ZM201.497 26.52C202.937 26.52 204.057 25.84 204.857 24.48V20.72H203.297C201.857 20.72 200.777 20.9733 200.057 21.48C199.364 21.9867 199.017 22.7733 199.017 23.84C199.017 24.6933 199.23 25.36 199.657 25.84C200.11 26.2933 200.724 26.52 201.497 26.52ZM221.34 31.04C219.5 31.04 218.06 30.52 217.02 29.48C216.007 28.4133 215.5 26.9067 215.5 24.96V0.679999L221.82 -1.90735e-06V24.72C221.82 25.6 222.18 26.04 222.9 26.04C223.274 26.04 223.62 25.9733 223.94 25.84L225.18 30.32C224.034 30.8 222.754 31.04 221.34 31.04ZM245.9 19.32C245.9 20.2 245.86 20.96 245.78 21.6H232.62C232.833 23.3867 233.34 24.64 234.14 25.36C234.94 26.08 236.047 26.44 237.46 26.44C238.313 26.44 239.14 26.2933 239.94 26C240.74 25.68 241.607 25.2 242.54 24.56L245.14 28.08C242.66 30.0533 239.9 31.04 236.86 31.04C233.42 31.04 230.78 30.0267 228.94 28C227.1 25.9733 226.18 23.2533 226.18 19.84C226.18 17.68 226.567 15.7467 227.34 14.04C228.113 12.3067 229.247 10.9467 230.74 9.96C232.233 8.94667 234.02 8.44 236.1 8.44C239.167 8.44 241.567 9.4 243.3 11.32C245.033 13.24 245.9 15.9067 245.9 19.32ZM239.7 17.52C239.647 14.2667 238.5 12.64 236.26 12.64C235.167 12.64 234.313 13.04 233.7 13.84C233.113 14.64 232.753 15.96 232.62 17.8H239.7V17.52ZM256.93 8.44C258.45 8.44 259.877 8.66667 261.21 9.12C262.544 9.57333 263.717 10.2133 264.73 11.04L262.41 14.6C260.677 13.5067 258.93 12.96 257.17 12.96C256.344 12.96 255.704 13.1067 255.25 13.4C254.824 13.6667 254.61 14.0533 254.61 14.56C254.61 14.96 254.704 15.2933 254.89 15.56C255.104 15.8 255.517 16.0533 256.13 16.32C256.744 16.5867 257.69 16.9067 258.97 17.28C261.184 17.92 262.824 18.76 263.89 19.8C264.984 20.8133 265.53 22.2267 265.53 24.04C265.53 25.48 265.117 26.7333 264.29 27.8C263.464 28.84 262.33 29.64 260.89 30.2C259.45 30.76 257.85 31.04 256.09 31.04C254.304 31.04 252.637 30.76 251.09 30.2C249.57 29.64 248.277 28.8667 247.21 27.88L250.29 24.44C252.077 25.8267 253.957 26.52 255.93 26.52C256.89 26.52 257.637 26.3467 258.17 26C258.73 25.6533 259.01 25.16 259.01 24.52C259.01 24.0133 258.904 23.6133 258.69 23.32C258.477 23.0267 258.064 22.76 257.45 22.52C256.837 22.2533 255.864 21.9333 254.53 21.56C252.424 20.9467 250.85 20.0933 249.81 19C248.77 17.9067 248.25 16.5467 248.25 14.92C248.25 13.6933 248.597 12.6 249.29 11.64C250.01 10.6533 251.024 9.88 252.33 9.32C253.664 8.73333 255.197 8.44 256.93 8.44Z" fill="black"/>
</svg>
